<svg id="Layer_1" data-name="Layer 1" xmlns="http://www.w3.org/2000/svg" viewBox="0 0 500 500"><defs><style>.cls-1{fill:#e8e8e8;}.cls-2{fill:#c6c6c6;}.cls-3{fill:#ff8dae;}.cls-4{fill:none;stroke:#000;stroke-linecap:round;stroke-linejoin:round;stroke-width:15px;}</style></defs><title>rabbit</title><path class="cls-1" d="M401.72,286c9.13-95.8,16.6-271.6-50.71-276.54-47.55-3.49-55.58,100.8-52.12,203.16a192.56,192.56,0,0,0-97.78,0C204.57,110.23,196.54,5.94,149,9.43,81.68,14.37,89.15,190.17,98.28,286a155,155,0,0,0-24.9,84.32c0,91.31,79.07,120.37,176.62,120.37S426.62,461.6,426.62,370.29A155,155,0,0,0,401.72,286Z"/><path class="cls-2" d="M250,454.66C159.07,454.66,84.21,429.4,74.46,352a157.56,157.56,0,0,0-1.08,18.28c0,91.31,79.07,120.37,176.62,120.37S426.62,461.6,426.62,370.29A157.56,157.56,0,0,0,425.54,352C415.79,429.4,340.93,454.66,250,454.66Z"/><path class="cls-3" d="M276.1,369.8c0,9.67-13.75,23.63-30.7,23.63s-30.7-14-30.7-23.63,13.74-11.41,30.7-11.41S276.1,360.12,276.1,369.8Z"/><path class="cls-4" d="M276.1,369.8c0,9.67-13.75,23.63-30.7,23.63s-30.7-14-30.7-23.63,13.74-11.41,30.7-11.41S276.1,360.12,276.1,369.8Z"/><path class="cls-3" d="M171.87,223C175.35,146,174.28,49.92,147,52.19c-35.13,2.93-28.08,141-23.13,203A176.72,176.72,0,0,1,171.87,223Z"/><path class="cls-3" d="M328.13,223C324.65,146,325.72,49.92,353,52.19c35.13,2.93,28.08,141,23.13,203A176.72,176.72,0,0,0,328.13,223Z"/><path class="cls-4" d="M171.87,223C175.35,146,174.28,49.92,147,52.19c-35.13,2.93-28.08,141-23.13,203A176.72,176.72,0,0,1,171.87,223Z"/><path class="cls-4" d="M328.13,223C324.65,146,325.72,49.92,353,52.19c35.13,2.93,28.08,141,23.13,203A176.72,176.72,0,0,0,328.13,223Z"/><path class="cls-4" d="M401.72,286c9.13-95.8,16.6-271.6-50.71-276.54-47.55-3.49-55.58,100.8-52.12,203.16a192.56,192.56,0,0,0-97.78,0C204.57,110.23,196.54,5.94,149,9.43,81.68,14.37,89.15,190.17,98.28,286a155,155,0,0,0-24.9,84.32c0,91.31,79.07,120.37,176.62,120.37S426.62,461.6,426.62,370.29A155,155,0,0,0,401.72,286Z"/><line class="cls-4" x1="192.05" y1="323.81" x2="167.18" y2="323.81"/><line class="cls-4" x1="298.75" y1="323.81" x2="323.61" y2="323.81"/></svg>